<?xml version="1.0" encoding="UTF-8"?>
<!DOCTYPE svg PUBLIC "-//W3C//DTD SVG 1.1//EN" "http://www.w3.org/Graphics/SVG/1.1/DTD/svg11.dtd">
<svg xmlns="http://www.w3.org/2000/svg" xmlns:xlink="http://www.w3.org/1999/xlink" version="1.1" width="432px" height="314px" viewBox="-0.5 -0.5 432 314" style="background-color: rgb(255, 255, 255);"><defs><clipPath id="mx-clip-14-191-402-44-0"><rect x="14" y="191" width="402" height="44"/></clipPath><clipPath id="mx-clip-14-243-402-62-0"><rect x="14" y="243" width="402" height="62"/></clipPath><clipPath id="mx-clip-124-41-182-44-0"><rect x="124" y="41" width="182" height="44"/></clipPath><clipPath id="mx-clip-124-93-182-42-0"><rect x="124" y="93" width="182" height="42"/></clipPath></defs><g><path d="M 10 186 L 10 160 L 420 160 L 420 186" fill="rgba(255, 255, 255, 1)" stroke="rgba(0, 0, 0, 1)" stroke-miterlimit="10" pointer-events="all"/><path d="M 10 186 L 10 300 L 420 300 L 420 186" fill="none" stroke="rgba(0, 0, 0, 1)" stroke-miterlimit="10" pointer-events="none"/><path d="M 10 186 L 420 186" fill="none" stroke="rgba(0, 0, 0, 1)" stroke-miterlimit="10" pointer-events="none"/><g fill="rgba(0, 0, 0, 1)" font-family="Helvetica" font-weight="bold" pointer-events="none" text-anchor="middle" font-size="12px"><text x="214.5" y="177.5">BloodGroup</text></g><g fill="rgba(0, 0, 0, 1)" font-family="Helvetica" pointer-events="none" clip-path="url(#mx-clip-14-191-402-44-0)" font-size="12px"><text x="15.5" y="203.5">- isRh: boolt</text><text x="15.5" y="217.5">- group: string</text></g><path d="M 10 234 L 420 234" fill="none" stroke="rgba(0, 0, 0, 1)" stroke-miterlimit="10" pointer-events="none"/><g fill="rgba(0, 0, 0, 1)" font-family="Helvetica" pointer-events="none" clip-path="url(#mx-clip-14-243-402-62-0)" font-size="12px"><text x="15.5" y="255.5">+ inputBloodGroupList(Person* []): void</text><text x="15.5" y="269.5">+ isGeneticallyMatched(Person father, Person mother, Person child): bool</text><text x="15.5" y="283.5">+ findCompatiblePeople(Person X): Person* []</text></g><path d="M 120 36 L 120 10 L 310 10 L 310 36" fill="rgba(255, 255, 255, 1)" stroke="rgba(0, 0, 0, 1)" stroke-miterlimit="10" pointer-events="none"/><path d="M 120 36 L 120 130 L 310 130 L 310 36" fill="none" stroke="rgba(0, 0, 0, 1)" stroke-miterlimit="10" pointer-events="none"/><path d="M 120 36 L 310 36" fill="none" stroke="rgba(0, 0, 0, 1)" stroke-miterlimit="10" pointer-events="none"/><g fill="rgba(0, 0, 0, 1)" font-family="Helvetica" font-weight="bold" pointer-events="none" text-anchor="middle" font-size="12px"><text x="214.5" y="27.5">Person</text></g><g fill="rgba(0, 0, 0, 1)" font-family="Helvetica" pointer-events="none" clip-path="url(#mx-clip-124-41-182-44-0)" font-size="12px"><text x="125.5" y="53.5"># bloodGroup: string</text><text x="125.5" y="67.5"># citizenIdentification: string</text></g><path d="M 120 84 L 310 84" fill="none" stroke="rgba(0, 0, 0, 1)" stroke-miterlimit="10" pointer-events="none"/><g fill="rgba(0, 0, 0, 1)" font-family="Helvetica" pointer-events="none" clip-path="url(#mx-clip-124-93-182-42-0)" font-size="12px"><text x="125.5" y="105.5">+ getBloodGroup(): string</text><text x="125.5" y="119.5">+ getCitizenIdentification(): string</text></g></g></svg>