<?xml version="1.0" encoding="UTF-8"?>
<!DOCTYPE svg PUBLIC "-//W3C//DTD SVG 1.1//EN" "http://www.w3.org/Graphics/SVG/1.1/DTD/svg11.dtd">
<svg xmlns="http://www.w3.org/2000/svg" xmlns:xlink="http://www.w3.org/1999/xlink" version="1.1" width="481px" height="244px" viewBox="-0.5 -0.5 481 244"><defs><clipPath id="mx-clip-324-219-152-26-0"><rect x="324" y="219" width="152" height="26"/></clipPath><clipPath id="mx-clip-164-31-152-54-0"><rect x="164" y="31" width="152" height="54"/></clipPath><clipPath id="mx-clip-164-93-152-26-0"><rect x="164" y="93" width="152" height="26"/></clipPath><clipPath id="mx-clip-4-219-152-26-0"><rect x="4" y="219" width="152" height="26"/></clipPath></defs><g><path d="M 320 206 L 320 180 L 480 180 L 480 206" fill="#ffffff" stroke="#000000" stroke-miterlimit="10" pointer-events="all"/><path d="M 320 206 L 320 240 L 480 240 L 480 206" fill="none" stroke="#000000" stroke-miterlimit="10" pointer-events="none"/><path d="M 320 206 L 480 206" fill="none" stroke="#000000" stroke-miterlimit="10" pointer-events="none"/><g fill="#000000" font-family="Helvetica" font-weight="bold" pointer-events="none" text-anchor="middle" font-size="12px"><text x="399.5" y="197.5">NhanVienVanPhong</text></g><path d="M 320 210 L 480 210" fill="none" stroke="#000000" stroke-miterlimit="10" pointer-events="none"/><g fill="#000000" font-family="Helvetica" pointer-events="none" clip-path="url(#mx-clip-324-219-152-26-0)" font-size="12px"><text x="325.5" y="231.5">+ tinhLuong(): int</text></g><path d="M 160 26 L 160 0 L 320 0 L 320 26" fill="#ffffff" stroke="#000000" stroke-miterlimit="10" pointer-events="none"/><path d="M 160 26 L 160 114 L 320 114 L 320 26" fill="none" stroke="#000000" stroke-miterlimit="10" pointer-events="none"/><path d="M 160 26 L 320 26" fill="none" stroke="#000000" stroke-miterlimit="10" pointer-events="none"/><g fill="#000000" font-family="Helvetica" font-weight="bold" font-style="italic" pointer-events="none" text-anchor="middle" font-size="12px"><text x="239.5" y="17.5">NhanVien</text></g><g fill="#000000" font-family="Helvetica" pointer-events="none" clip-path="url(#mx-clip-164-31-152-54-0)" font-size="12px"><text x="165.5" y="43.5"># hoTen: string</text><text x="165.5" y="57.5"># ngaySinh: vector&lt;int&gt;(3)</text><text x="165.5" y="71.5"># luong: int</text></g><path d="M 160 84 L 320 84" fill="none" stroke="#000000" stroke-miterlimit="10" pointer-events="none"/><g fill="#000000" font-family="Helvetica" font-style="italic" pointer-events="none" clip-path="url(#mx-clip-164-93-152-26-0)" font-size="12px"><text x="165.5" y="105.5">+ tinhLuong(): int</text></g><path d="M 0 206 L 0 180 L 160 180 L 160 206" fill="#ffffff" stroke="#000000" stroke-miterlimit="10" pointer-events="none"/><path d="M 0 206 L 0 240 L 160 240 L 160 206" fill="none" stroke="#000000" stroke-miterlimit="10" pointer-events="none"/><path d="M 0 206 L 160 206" fill="none" stroke="#000000" stroke-miterlimit="10" pointer-events="none"/><g fill="#000000" font-family="Helvetica" font-weight="bold" pointer-events="none" text-anchor="middle" font-size="12px"><text x="79.5" y="197.5">NhanVienSanXuat</text></g><path d="M 0 210 L 160 210" fill="none" stroke="#000000" stroke-miterlimit="10" pointer-events="none"/><g fill="#000000" font-family="Helvetica" pointer-events="none" clip-path="url(#mx-clip-4-219-152-26-0)" font-size="12px"><text x="5.5" y="231.5">+ tinhLuong(): int</text></g><path d="M 400 180 L 400 150 L 240 150 L 240 126.12" fill="none" stroke="#000000" stroke-miterlimit="10" pointer-events="none"/><path d="M 240 115.12 L 245.5 126.12 L 234.5 126.12 Z" fill="none" stroke="#000000" stroke-miterlimit="10" pointer-events="none"/><path d="M 80 180 L 80 150 L 241.28 150 L 241.28 126.46" fill="none" stroke="#000000" stroke-miterlimit="10" pointer-events="none"/><path d="M 241.28 115.46 L 246.78 126.46 L 235.78 126.46 Z" fill="none" stroke="#000000" stroke-miterlimit="10" pointer-events="none"/></g></svg>