<?xml version="1.0" encoding="UTF-8"?>
<!DOCTYPE svg PUBLIC "-//W3C//DTD SVG 1.1//EN" "http://www.w3.org/Graphics/SVG/1.1/DTD/svg11.dtd">
<svg xmlns="http://www.w3.org/2000/svg" xmlns:xlink="http://www.w3.org/1999/xlink" version="1.1" width="391px" height="114px" viewBox="-0.5 -0.5 391 114"><defs><clipPath id="mx-clip-4-31-152-34-0"><rect x="4" y="31" width="152" height="34"/></clipPath><clipPath id="mx-clip-234-31-152-26-0"><rect x="234" y="31" width="152" height="26"/></clipPath><clipPath id="mx-clip-234-65-152-50-0"><rect x="234" y="65" width="152" height="50"/></clipPath></defs><g><path d="M 0 26 L 0 0 L 160 0 L 160 26" fill="#ffffff" stroke="#000000" stroke-miterlimit="10" pointer-events="all"/><path d="M 0 26 L 0 68 L 160 68 L 160 26" fill="none" stroke="#000000" stroke-miterlimit="10" pointer-events="none"/><path d="M 0 26 L 160 26" fill="none" stroke="#000000" stroke-miterlimit="10" pointer-events="none"/><g fill="#000000" font-family="Helvetica" font-weight="bold" pointer-events="none" text-anchor="middle" font-size="12px"><text x="79.5" y="17.5">Ellipse</text></g><g fill="#000000" font-family="Helvetica" pointer-events="none" clip-path="url(#mx-clip-4-31-152-34-0)" font-size="12px"><text x="5.5" y="43.5"># a: double</text><text x="5.5" y="57.5"># b: double</text></g><path d="M 0 64 L 160 64" fill="none" stroke="#000000" stroke-miterlimit="10" pointer-events="none"/><path d="M 230 26 L 230 0 L 390 0 L 390 26" fill="#ffffff" stroke="#000000" stroke-miterlimit="10" pointer-events="none"/><path d="M 230 26 L 230 110 L 390 110 L 390 26" fill="none" stroke="#000000" stroke-miterlimit="10" pointer-events="none"/><path d="M 230 26 L 390 26" fill="none" stroke="#000000" stroke-miterlimit="10" pointer-events="none"/><g fill="#000000" font-family="Helvetica" font-weight="bold" pointer-events="none" text-anchor="middle" font-size="12px"><text x="309.5" y="17.5">Circle</text></g><g fill="#000000" font-family="Helvetica" pointer-events="none" clip-path="url(#mx-clip-234-31-152-26-0)" font-size="12px"><text x="235.5" y="43.5"># r: double</text></g><path d="M 230 56 L 390 56" fill="none" stroke="#000000" stroke-miterlimit="10" pointer-events="none"/><g fill="#000000" font-family="Helvetica" pointer-events="none" clip-path="url(#mx-clip-234-65-152-50-0)" font-size="12px"><text x="235.5" y="77.5">+ set(double): void</text><text x="235.5" y="91.5">+ set(Circle): void</text><text x="235.5" y="105.5">+ area(): double</text></g></g></svg>