<?xml version="1.0" encoding="UTF-8" standalone="no"?>
<!-- Created with Inkscape (http://www.inkscape.org/) -->
<svg
   xmlns:svg="http://www.w3.org/2000/svg"
   xmlns="http://www.w3.org/2000/svg"
   version="1.0"
   x="0.0000000"
   y="0.0000000"
   width="600.00000"
   height="800.00000"
   id="svg1306">
  <defs
     id="defs1308">
    <linearGradient
       id="linearGradient2171">
      <stop
         style="stop-color:#f50000;stop-opacity:1.0000000"
         offset="0.0000000"
         id="stop2173" />
      <stop
         style="stop-color:#f50000;stop-opacity:0.0000000"
         offset="1.0000000"
         id="stop2175" />
    </linearGradient>
  </defs>
  <g
     id="layer1">
    <path
       d="M 273.01421,61.769600 L 252.26513,178.61968 L 247.89689,315.12678 L 291.57917,429.79274 L 243.52867,548.82693 L 262.09363,642.74382 L 294.85534,744.30510"
       style="fill:none;fill-opacity:0.75000000;fill-rule:evenodd;stroke:#e3e3e3;stroke-width:30.000000;stroke-linecap:round;stroke-linejoin:miter;stroke-miterlimit:4.0000000;stroke-dasharray:none;stroke-opacity:1.0000000"
       id="path2152" />
    <path
       d="M 274.10626,59.585486 L 138.69121,177.52762 L 245.71278,318.40295 L 287.21094,431.97686 L 243.52866,546.64282 L 265.36980,643.83588 L 297.03945,739.93688"
       style="fill:none;fill-opacity:0.75000000;fill-rule:evenodd;stroke:#ff0c0c;stroke-width:2.0000000;stroke-linecap:butt;stroke-linejoin:miter;stroke-miterlimit:4.0000000;stroke-dasharray:none;stroke-opacity:1.0000000"
       id="path2118" />
    <path
       d="M 275.19831,67.229884 L 256.63335,177.52762 L 409.52130,315.12678 L 293.76327,430.88480 L 250.08101,547.73487 L 364.74697,643.83588 L 300.31562,737.75276"
       style="fill:none;fill-opacity:0.75000000;fill-rule:evenodd;stroke:#ff0aee;stroke-width:2.0000000;stroke-linecap:butt;stroke-linejoin:miter;stroke-miterlimit:4.0000000;stroke-dasharray:none;stroke-opacity:1.0000000"
       id="path2120" />
    <path
       d="M 271.92214,55.217259 L 251.17307,179.71173 L 247.89689,316.21884 L 196.57022,428.70069 L 337.44555,545.55076 L 256.63335,646.01999 L 290.48711,743.21304"
       style="fill:none;fill-opacity:0.75000000;fill-rule:evenodd;stroke:#3b20ff;stroke-width:2.0000000;stroke-linecap:butt;stroke-linejoin:miter;stroke-miterlimit:4.0000000;stroke-dasharray:none;stroke-opacity:1.0000000"
       id="path2122" />
    <path
       d="M 305.77590,742.12099 L 372.39137,643.83588 L 383.31194,544.45871 L 292.67122,430.88480 L 250.08101,316.21884 L 377.85165,178.61968 L 277.38243,58.493430"
       style="fill:none;fill-opacity:0.75000000;fill-rule:evenodd;stroke:#00b000;stroke-width:2.0000000;stroke-linecap:butt;stroke-linejoin:miter;stroke-miterlimit:4.0000000;stroke-dasharray:none;stroke-opacity:1.0000000"
       id="path2124" />
    <path
       d="M 265.36980,63.953713 L 245.71278,179.71173 L 242.43661,311.85061 L 92.824828,430.88480 L 236.97633,548.82693 L 259.90952,642.74382 L 295.94739,748.67333"
       style="fill:none;fill-opacity:0.75000000;fill-rule:evenodd;stroke:#ffda10;stroke-width:2.0000000;stroke-linecap:butt;stroke-linejoin:miter;stroke-miterlimit:4.0000000;stroke-dasharray:none;stroke-opacity:1.0000000"
       id="path2126" />
    <path
       d="M 286.11889,741.02893 L 252.26512,649.29616 L 478.32088,546.64282 L 295.94739,423.24040 L 254.44924,315.12678 L 259.90952,179.71174 L 280.65860,69.413998"
       style="fill:none;fill-opacity:0.75000000;fill-rule:evenodd;stroke:#00d2ce;stroke-width:2.0000000;stroke-linecap:butt;stroke-linejoin:miter;stroke-miterlimit:4.0000000;stroke-dasharray:none;stroke-opacity:1.0000000"
       id="path2183" />
    <path
       d="M 299.22357,733.38453 L 269.73803,644.92793 L 253.35718,552.10311 L 295.94739,439.62125 L 530.73961,316.21884 L 465.21620,177.52762 L 273.01420,60.677543"
       style="fill:none;fill-opacity:0.75000000;fill-rule:evenodd;stroke:#9b9b9b;stroke-width:2.0000000;stroke-linecap:butt;stroke-linejoin:miter;stroke-miterlimit:4.0000000;stroke-dasharray:none;stroke-opacity:1.0000000"
       id="path2179" />
    <g
       id="g2344">
      <path
         d="M 223.87164 102.56812 A 14.742767 14.742767 0 1 1  194.38611,102.56812 A 14.742767 14.742767 0 1 1  223.87164 102.56812 z"
         transform="translate(-69.89163,76.59752)"
         style="fill:#e3e3e3;fill-opacity:1.0000000;stroke:#000000;stroke-width:0.62500000;stroke-miterlimit:4.0000000;stroke-dasharray:0.62500000 0.62500000 ;stroke-dashoffset:0.0000000;stroke-opacity:1.0000000"
         id="path1314" />
      <path
         d="M 223.87164 102.56812 A 14.742767 14.742767 0 1 1  194.38611,102.56812 A 14.742767 14.742767 0 1 1  223.87164 102.56812 z"
         transform="translate(37.67598,212.2857)"
         style="fill:#e3e3e3;fill-opacity:1.0000000;stroke:#000000;stroke-width:0.62500000;stroke-miterlimit:4.0000000;stroke-dasharray:0.62500000 0.62500000 ;stroke-dashoffset:0.0000000;stroke-opacity:1.0000000"
         id="path1316" />
      <path
         d="M 223.87164 102.56812 A 14.742767 14.742767 0 1 1  194.38611,102.56812 A 14.742767 14.742767 0 1 1  223.87164 102.56812 z"
         transform="translate(83.54233,328.0437)"
         style="fill:#e3e3e3;fill-opacity:1.0000000;stroke:#000000;stroke-width:0.62500000;stroke-miterlimit:4.0000000;stroke-dasharray:0.62500000 0.62500000 ;stroke-dashoffset:0.0000000;stroke-opacity:1.0000000"
         id="path1318" />
      <path
         d="M 223.87164 102.56812 A 14.742767 14.742767 0 1 1  194.38611,102.56812 A 14.742767 14.742767 0 1 1  223.87164 102.56812 z"
         transform="translate(128.3166,442.1636)"
         style="fill:#e3e3e3;fill-opacity:1.0000000;stroke:#000000;stroke-width:0.62500000;stroke-miterlimit:4.0000000;stroke-dasharray:0.62500000 0.62500000 ;stroke-dashoffset:0.0000000;stroke-opacity:1.0000000"
         id="path1320" />
      <path
         d="M 223.87164 102.56812 A 14.742767 14.742767 0 1 1  194.38611,102.56812 A 14.742767 14.742767 0 1 1  223.87164 102.56812 z"
         transform="translate(54.05670,541.5408)"
         style="fill:#e3e3e3;fill-opacity:1.0000000;stroke:#000000;stroke-width:0.62500000;stroke-miterlimit:4.0000000;stroke-dasharray:0.62500000 0.62500000 ;stroke-dashoffset:0.0000000;stroke-opacity:1.0000000"
         id="path1322" />
      <path
         d="M 223.87164 102.56812 A 14.742767 14.742767 0 1 1  194.38611,102.56812 A 14.742767 14.742767 0 1 1  223.87164 102.56812 z"
         transform="translate(35.49185,445.4398)"
         style="fill:#e3e3e3;fill-opacity:1.0000000;stroke:#000000;stroke-width:0.62500000;stroke-miterlimit:4.0000000;stroke-dasharray:0.62500000 0.62500000 ;stroke-dashoffset:0.0000000;stroke-opacity:1.0000000"
         id="path1324" />
      <path
         d="M 223.87164 102.56812 A 14.742767 14.742767 0 1 1  194.38611,102.56812 A 14.742767 14.742767 0 1 1  223.87164 102.56812 z"
         transform="translate(165.4466,76.59752)"
         style="fill:#e3e3e3;fill-opacity:1.0000000;stroke:#000000;stroke-width:0.62500000;stroke-miterlimit:4.0000000;stroke-dasharray:0.62500000 0.62500000 ;stroke-dashoffset:0.0000000;stroke-opacity:1.0000000"
         id="path1326" />
      <path
         d="M 223.87164 102.56812 A 14.742767 14.742767 0 1 1  194.38611,102.56812 A 14.742767 14.742767 0 1 1  223.87164 102.56812 z"
         transform="translate(253.9033,76.59752)"
         style="fill:#e3e3e3;fill-opacity:1.0000000;stroke:#000000;stroke-width:0.62500000;stroke-miterlimit:4.0000000;stroke-dasharray:0.62500000 0.62500000 ;stroke-dashoffset:0.0000000;stroke-opacity:1.0000000"
         id="path1328" />
      <path
         d="M 223.87164 102.56812 A 14.742767 14.742767 0 1 1  194.38611,102.56812 A 14.742767 14.742767 0 1 1  223.87164 102.56812 z"
         transform="translate(248.4430,326.9516)"
         style="fill:#e3e3e3;fill-opacity:1.0000000;stroke:#000000;stroke-width:0.62500000;stroke-miterlimit:4.0000000;stroke-dasharray:0.62500000 0.62500000 ;stroke-dashoffset:0.0000000;stroke-opacity:1.0000000"
         id="path1330" />
      <path
         d="M 223.87164 102.56812 A 14.742767 14.742767 0 1 1  194.38611,102.56812 A 14.742767 14.742767 0 1 1  223.87164 102.56812 z"
         transform="translate(63.88540,-42.43664)"
         style="fill:#bcbcbc;fill-opacity:1.0000000;stroke:#000000;stroke-width:1.0000000;stroke-miterlimit:4.0000000;stroke-dasharray:1.0000000 1.0000000 ;stroke-dashoffset:0.0000000;stroke-opacity:1.0000000"
         id="path1332" />
      <path
         d="M 223.87164 102.56812 A 14.742767 14.742767 0 1 1  194.38611,102.56812 A 14.742767 14.742767 0 1 1  223.87164 102.56812 z"
         transform="translate(-104.2914,212.2857)"
         style="fill:#e3e3e3;fill-opacity:1.0000000;stroke:#000000;stroke-width:0.62500000;stroke-miterlimit:4.0000000;stroke-dasharray:0.62500000 0.62500000 ;stroke-dashoffset:0.0000000;stroke-opacity:1.0000000"
         id="path1334" />
      <path
         d="M 223.87164 102.56812 A 14.742767 14.742767 0 1 1  194.38611,102.56812 A 14.742767 14.742767 0 1 1  223.87164 102.56812 z"
         transform="translate(321.6107,212.2857)"
         style="fill:#e3e3e3;fill-opacity:1.0000000;stroke:#000000;stroke-width:0.62500000;stroke-miterlimit:4.0000000;stroke-dasharray:0.62500000 0.62500000 ;stroke-dashoffset:0.0000000;stroke-opacity:1.0000000"
         id="path1336" />
      <path
         d="M 223.87164 102.56812 A 14.742767 14.742767 0 1 1  194.38611,102.56812 A 14.742767 14.742767 0 1 1  223.87164 102.56812 z"
         transform="translate(87.91061,641.1910)"
         style="fill:#bcbcbc;fill-opacity:1.0000000;stroke:#000000;stroke-width:1.0000000;stroke-miterlimit:4.0000000;stroke-dasharray:1.0000000 1.0000000 ;stroke-dashoffset:0.0000000;stroke-opacity:1.0000000"
         id="path1338" />
      <path
         d="M 223.87164 102.56812 A 14.742767 14.742767 0 1 1  194.38611,102.56812 A 14.742767 14.742767 0 1 1  223.87164 102.56812 z"
         transform="translate(269.1920,443.2557)"
         style="fill:#e3e3e3;fill-opacity:1.0000000;stroke:#000000;stroke-width:0.62500000;stroke-miterlimit:4.0000000;stroke-dasharray:0.62500000 0.62500000 ;stroke-dashoffset:0.0000000;stroke-opacity:1.0000000"
         id="path1340" />
      <path
         d="M 223.87164 102.56812 A 14.742767 14.742767 0 1 1  194.38611,102.56812 A 14.742767 14.742767 0 1 1  223.87164 102.56812 z"
         transform="translate(42.04419,76.59752)"
         style="fill:#e3e3e3;fill-opacity:1.0000000;stroke:#000000;stroke-width:0.62500000;stroke-miterlimit:4.0000000;stroke-dasharray:0.62500000 0.62500000 ;stroke-dashoffset:0.0000000;stroke-opacity:1.0000000"
         id="path1356" />
      <path
         d="M 223.87164 102.56812 A 14.742767 14.742767 0 1 1  194.38611,102.56812 A 14.742767 14.742767 0 1 1  223.87164 102.56812 z"
         transform="translate(-114.1199,326.9516)"
         style="fill:#e3e3e3;fill-opacity:1.0000000;stroke:#000000;stroke-width:0.62500000;stroke-miterlimit:4.0000000;stroke-dasharray:0.62500000 0.62500000 ;stroke-dashoffset:0.0000000;stroke-opacity:1.0000000"
         id="path1358" />
      <path
         d="M 223.87164 102.56812 A 14.742767 14.742767 0 1 1  194.38611,102.56812 A 14.742767 14.742767 0 1 1  223.87164 102.56812 z"
         transform="translate(-9.282480,326.9516)"
         style="fill:#e3e3e3;fill-opacity:1.0000000;stroke:#000000;stroke-width:0.62500000;stroke-miterlimit:4.0000000;stroke-dasharray:0.62500000 0.62500000 ;stroke-dashoffset:0.0000000;stroke-opacity:1.0000000"
         id="path1360" />
      <path
         d="M 223.87164 102.56812 A 14.742767 14.742767 0 1 1  194.38611,102.56812 A 14.742767 14.742767 0 1 1  223.87164 102.56812 z"
         transform="translate(200.3924,212.2857)"
         style="fill:#e3e3e3;fill-opacity:1.0000000;stroke:#000000;stroke-width:0.62500000;stroke-miterlimit:4.0000000;stroke-dasharray:0.62500000 0.62500000 ;stroke-dashoffset:0.0000000;stroke-opacity:1.0000000"
         id="path1362" />
      <path
         d="M 223.87164 102.56812 A 14.742767 14.742767 0 1 1  194.38611,102.56812 A 14.742767 14.742767 0 1 1  223.87164 102.56812 z"
         transform="translate(176.3672,443.2557)"
         style="fill:#e3e3e3;fill-opacity:1.0000000;stroke:#000000;stroke-width:0.62500000;stroke-miterlimit:4.0000000;stroke-dasharray:0.62500000 0.62500000 ;stroke-dashoffset:0.0000000;stroke-opacity:1.0000000"
         id="path1364" />
      <path
         d="M 223.87164 102.56812 A 14.742767 14.742767 0 1 1  194.38611,102.56812 A 14.742767 14.742767 0 1 1  223.87164 102.56812 z"
         transform="translate(157.8022,541.5408)"
         style="fill:#e3e3e3;fill-opacity:1.0000000;stroke:#000000;stroke-width:0.62500000;stroke-miterlimit:4.0000000;stroke-dasharray:0.62500000 0.62500000 ;stroke-dashoffset:0.0000000;stroke-opacity:1.0000000"
         id="path1368" />
    </g>
    <text
       x="296.98486"
       y="36.324677"
       style="font-size:36.000000px;font-style:normal;font-variant:normal;font-weight:normal;font-stretch:normal;text-align:start;line-height:125.00000%;writing-mode:lr-tb;text-anchor:start;fill:#000000;fill-opacity:1.0000000;stroke:none;stroke-width:1.0000000px;stroke-linecap:butt;stroke-linejoin:miter;stroke-opacity:1.0000000;font-family:Times New Roman"
       id="text2185"
       xml:space="preserve"><tspan
         x="296.98486"
         y="36.324677"
         id="tspan2187">A</tspan></text>
    <text
       x="328.09753"
       y="777.37256"
       style="font-size:36.000000px;font-style:normal;font-variant:normal;font-weight:normal;font-stretch:normal;text-align:start;line-height:125.00000%;writing-mode:lr-tb;text-anchor:start;fill:#000000;fill-opacity:1.0000000;stroke:none;stroke-width:1.0000000px;stroke-linecap:butt;stroke-linejoin:miter;stroke-opacity:1.0000000;font-family:Times New Roman"
       id="text2189"
       xml:space="preserve"><tspan
         x="328.09753"
         y="777.37256"
         id="tspan2191">B</tspan></text>
  </g>
</svg>
