<?xml version="1.0" encoding="utf-8"?>
<svg xmlns="http://www.w3.org/2000/svg" xmlns:xlink="http://www.w3.org/1999/xlink" width="600" height="400" viewBox="0 0 2400 1600">
<defs>
  <clipPath id="clip110">
    <rect x="0" y="0" width="2400" height="1600"/>
  </clipPath>
</defs>
<path clip-path="url(#clip110)" d="M0 1600 L2400 1600 L2400 0 L0 0  Z" fill="#ffffff" fill-rule="evenodd" fill-opacity="1"/>
<defs>
  <clipPath id="clip111">
    <rect x="480" y="0" width="1681" height="1600"/>
  </clipPath>
</defs>
<path clip-path="url(#clip110)" d="M218.94 1423.18 L2352.76 1423.18 L2352.76 47.2441 L218.94 47.2441  Z" fill="#ffffff" fill-rule="evenodd" fill-opacity="1"/>
<defs>
  <clipPath id="clip112">
    <rect x="218" y="47" width="2135" height="1377"/>
  </clipPath>
</defs>
<polyline clip-path="url(#clip112)" style="stroke:#000000; stroke-linecap:round; stroke-linejoin:round; stroke-width:2; stroke-opacity:0.1; fill:none" points="279.331,1423.18 279.331,47.2441 "/>
<polyline clip-path="url(#clip112)" style="stroke:#000000; stroke-linecap:round; stroke-linejoin:round; stroke-width:2; stroke-opacity:0.1; fill:none" points="761.306,1423.18 761.306,47.2441 "/>
<polyline clip-path="url(#clip112)" style="stroke:#000000; stroke-linecap:round; stroke-linejoin:round; stroke-width:2; stroke-opacity:0.1; fill:none" points="950.343,1423.18 950.343,47.2441 "/>
<polyline clip-path="url(#clip112)" style="stroke:#000000; stroke-linecap:round; stroke-linejoin:round; stroke-width:2; stroke-opacity:0.1; fill:none" points="1621.35,1423.18 1621.35,47.2441 "/>
<polyline clip-path="url(#clip112)" style="stroke:#000000; stroke-linecap:round; stroke-linejoin:round; stroke-width:2; stroke-opacity:0.1; fill:none" points="2292.36,1423.18 2292.36,47.2441 "/>
<polyline clip-path="url(#clip110)" style="stroke:#000000; stroke-linecap:round; stroke-linejoin:round; stroke-width:4; stroke-opacity:1; fill:none" points="218.94,1423.18 2352.76,1423.18 "/>
<polyline clip-path="url(#clip110)" style="stroke:#000000; stroke-linecap:round; stroke-linejoin:round; stroke-width:4; stroke-opacity:1; fill:none" points="279.331,1423.18 279.331,1404.28 "/>
<polyline clip-path="url(#clip110)" style="stroke:#000000; stroke-linecap:round; stroke-linejoin:round; stroke-width:4; stroke-opacity:1; fill:none" points="761.306,1423.18 761.306,1404.28 "/>
<polyline clip-path="url(#clip110)" style="stroke:#000000; stroke-linecap:round; stroke-linejoin:round; stroke-width:4; stroke-opacity:1; fill:none" points="950.343,1423.18 950.343,1404.28 "/>
<polyline clip-path="url(#clip110)" style="stroke:#000000; stroke-linecap:round; stroke-linejoin:round; stroke-width:4; stroke-opacity:1; fill:none" points="1621.35,1423.18 1621.35,1404.28 "/>
<polyline clip-path="url(#clip110)" style="stroke:#000000; stroke-linecap:round; stroke-linejoin:round; stroke-width:4; stroke-opacity:1; fill:none" points="2292.36,1423.18 2292.36,1404.28 "/>
<path clip-path="url(#clip110)" d="M273.984 1481.64 L290.304 1481.64 L290.304 1485.58 L268.359 1485.58 L268.359 1481.64 Q271.021 1478.89 275.605 1474.26 Q280.211 1469.61 281.392 1468.27 Q283.637 1465.74 284.517 1464.01 Q285.419 1462.25 285.419 1460.56 Q285.419 1457.8 283.475 1456.07 Q281.554 1454.33 278.452 1454.33 Q276.253 1454.33 273.799 1455.09 Q271.368 1455.86 268.591 1457.41 L268.591 1452.69 Q271.415 1451.55 273.868 1450.97 Q276.322 1450.39 278.359 1450.39 Q283.729 1450.39 286.924 1453.08 Q290.118 1455.77 290.118 1460.26 Q290.118 1462.39 289.308 1464.31 Q288.521 1466.2 286.415 1468.8 Q285.836 1469.47 282.734 1472.69 Q279.632 1475.88 273.984 1481.64 Z" fill="#000000" fill-rule="nonzero" fill-opacity="1" /><path clip-path="url(#clip110)" d="M773.32 1471.55 L773.32 1473.64 L753.737 1473.64 Q754.015 1478.03 756.376 1480.35 Q758.76 1482.64 762.996 1482.64 Q765.45 1482.64 767.742 1482.04 Q770.056 1481.44 772.325 1480.23 L772.325 1484.26 Q770.033 1485.23 767.626 1485.74 Q765.219 1486.25 762.742 1486.25 Q756.538 1486.25 752.904 1482.64 Q749.293 1479.03 749.293 1472.87 Q749.293 1466.51 752.719 1462.78 Q756.168 1459.03 762.001 1459.03 Q767.232 1459.03 770.265 1462.41 Q773.32 1465.77 773.32 1471.55 M769.061 1470.3 Q769.015 1466.81 767.093 1464.72 Q765.195 1462.64 762.047 1462.64 Q758.482 1462.64 756.33 1464.65 Q754.2 1466.67 753.876 1470.33 L769.061 1470.3 Z" fill="#000000" fill-rule="nonzero" fill-opacity="1" /><path clip-path="url(#clip110)" d="M954.59 1466.95 Q957.947 1467.66 959.822 1469.93 Q961.72 1472.2 961.72 1475.53 Q961.72 1480.65 958.201 1483.45 Q954.683 1486.25 948.201 1486.25 Q946.025 1486.25 943.711 1485.81 Q941.419 1485.39 938.965 1484.54 L938.965 1480.02 Q940.91 1481.16 943.225 1481.74 Q945.539 1482.32 948.062 1482.32 Q952.461 1482.32 954.752 1480.58 Q957.067 1478.84 957.067 1475.53 Q957.067 1472.48 954.914 1470.77 Q952.785 1469.03 948.965 1469.03 L944.937 1469.03 L944.937 1465.19 L949.15 1465.19 Q952.599 1465.19 954.428 1463.82 Q956.257 1462.43 956.257 1459.84 Q956.257 1457.18 954.359 1455.77 Q952.484 1454.33 948.965 1454.33 Q947.044 1454.33 944.845 1454.75 Q942.646 1455.16 940.007 1456.04 L940.007 1451.88 Q942.669 1451.14 944.984 1450.77 Q947.322 1450.39 949.382 1450.39 Q954.706 1450.39 957.808 1452.83 Q960.91 1455.23 960.91 1459.35 Q960.91 1462.22 959.266 1464.21 Q957.623 1466.18 954.59 1466.95 Z" fill="#000000" fill-rule="nonzero" fill-opacity="1" /><path clip-path="url(#clip110)" d="M1624.36 1455.09 L1612.56 1473.54 L1624.36 1473.54 L1624.36 1455.09 M1623.14 1451.02 L1629.02 1451.02 L1629.02 1473.54 L1633.95 1473.54 L1633.95 1477.43 L1629.02 1477.43 L1629.02 1485.58 L1624.36 1485.58 L1624.36 1477.43 L1608.76 1477.43 L1608.76 1472.92 L1623.14 1451.02 Z" fill="#000000" fill-rule="nonzero" fill-opacity="1" /><path clip-path="url(#clip110)" d="M2282.64 1451.02 L2301 1451.02 L2301 1454.96 L2286.93 1454.96 L2286.93 1463.43 Q2287.94 1463.08 2288.96 1462.92 Q2289.98 1462.73 2291 1462.73 Q2296.79 1462.73 2300.17 1465.9 Q2303.55 1469.08 2303.55 1474.49 Q2303.55 1480.07 2300.07 1483.17 Q2296.6 1486.25 2290.28 1486.25 Q2288.11 1486.25 2285.84 1485.88 Q2283.59 1485.51 2281.18 1484.77 L2281.18 1480.07 Q2283.27 1481.2 2285.49 1481.76 Q2287.71 1482.32 2290.19 1482.32 Q2294.19 1482.32 2296.53 1480.21 Q2298.87 1478.1 2298.87 1474.49 Q2298.87 1470.88 2296.53 1468.77 Q2294.19 1466.67 2290.19 1466.67 Q2288.31 1466.67 2286.44 1467.08 Q2284.59 1467.5 2282.64 1468.38 L2282.64 1451.02 Z" fill="#000000" fill-rule="nonzero" fill-opacity="1" /><path clip-path="url(#clip110)" d="M1298.69 1536.84 Q1298.69 1538.67 1297.56 1539.77 Q1296.46 1540.86 1295.08 1540.86 Q1293.85 1540.86 1293.21 1540.15 Q1292.57 1539.45 1292.57 1538.54 Q1292.57 1538.16 1292.73 1537.67 Q1292.89 1537.16 1293.24 1536.55 Q1293.63 1535.94 1294.43 1535.48 Q1295.24 1535.03 1296.33 1534.97 Q1296.11 1534.74 1296.04 1534.71 Q1295.56 1534.32 1294.66 1534.2 Q1294.53 1534.13 1294.08 1534.13 Q1291.86 1534.13 1289.6 1535.77 Q1287.38 1537.38 1284.64 1540.44 Q1281.2 1544.02 1278.98 1545.34 Q1288.73 1546.63 1288.73 1552.26 Q1288.73 1553.2 1288.48 1554.32 Q1287.96 1556.45 1287.96 1558 Q1287.96 1561.09 1290.05 1561.09 Q1292.08 1561.09 1293.37 1559.03 Q1294.69 1556.97 1295.79 1552.94 Q1295.95 1552.2 1296.11 1551.97 Q1296.27 1551.75 1296.72 1551.75 Q1297.53 1551.75 1297.53 1552.39 Q1296.78 1556.16 1295.14 1559.06 Q1293.05 1562.57 1289.93 1562.57 Q1287.32 1562.57 1285.58 1560.77 Q1283.87 1558.93 1283.87 1556.03 Q1283.87 1555.32 1284.13 1553.71 Q1284.32 1553.07 1284.32 1552.33 Q1284.32 1550.81 1283.48 1549.69 Q1282.65 1548.53 1281.29 1547.95 Q1279.94 1547.37 1278.81 1547.11 Q1277.72 1546.82 1276.66 1546.72 Q1273.44 1560.35 1272.98 1561.18 Q1272.69 1561.76 1272.05 1562.15 Q1271.41 1562.57 1270.73 1562.57 Q1270.09 1562.57 1269.44 1562.12 Q1268.83 1561.7 1268.83 1560.7 Q1268.83 1560.19 1269.09 1559.25 L1278.65 1521.25 L1278.85 1519.96 Q1278.85 1519.57 1278.69 1519.38 Q1278.56 1519.16 1277.78 1518.99 Q1277.04 1518.83 1275.56 1518.83 Q1274.95 1518.83 1274.66 1518.8 Q1274.4 1518.77 1274.18 1518.61 Q1273.95 1518.42 1273.95 1518.03 Q1273.95 1517.48 1274.18 1517.19 Q1274.43 1516.87 1274.63 1516.8 Q1274.82 1516.74 1275.21 1516.71 Q1275.75 1516.68 1277.59 1516.52 Q1279.43 1516.32 1281 1516.19 Q1282.58 1516.06 1283.26 1516.06 Q1283.64 1516.06 1283.84 1516.26 Q1284.06 1516.42 1284.1 1516.61 L1284.13 1516.77 L1277.27 1544.6 Q1280.1 1543.47 1284.58 1538.48 Q1289.76 1532.68 1294.21 1532.68 Q1296.3 1532.68 1297.49 1533.97 Q1298.69 1535.23 1298.69 1536.84 Z" fill="#000000" fill-rule="nonzero" fill-opacity="1" /><polyline clip-path="url(#clip112)" style="stroke:#000000; stroke-linecap:round; stroke-linejoin:round; stroke-width:2; stroke-opacity:0.1; fill:none" points="218.94,1111.17 2352.76,1111.17 "/>
<polyline clip-path="url(#clip112)" style="stroke:#000000; stroke-linecap:round; stroke-linejoin:round; stroke-width:2; stroke-opacity:0.1; fill:none" points="218.94,776.942 2352.76,776.942 "/>
<polyline clip-path="url(#clip112)" style="stroke:#000000; stroke-linecap:round; stroke-linejoin:round; stroke-width:2; stroke-opacity:0.1; fill:none" points="218.94,442.718 2352.76,442.718 "/>
<polyline clip-path="url(#clip112)" style="stroke:#000000; stroke-linecap:round; stroke-linejoin:round; stroke-width:2; stroke-opacity:0.1; fill:none" points="218.94,108.494 2352.76,108.494 "/>
<polyline clip-path="url(#clip110)" style="stroke:#000000; stroke-linecap:round; stroke-linejoin:round; stroke-width:4; stroke-opacity:1; fill:none" points="218.94,1423.18 218.94,47.2441 "/>
<polyline clip-path="url(#clip110)" style="stroke:#000000; stroke-linecap:round; stroke-linejoin:round; stroke-width:4; stroke-opacity:1; fill:none" points="218.94,1111.17 237.838,1111.17 "/>
<polyline clip-path="url(#clip110)" style="stroke:#000000; stroke-linecap:round; stroke-linejoin:round; stroke-width:4; stroke-opacity:1; fill:none" points="218.94,776.942 237.838,776.942 "/>
<polyline clip-path="url(#clip110)" style="stroke:#000000; stroke-linecap:round; stroke-linejoin:round; stroke-width:4; stroke-opacity:1; fill:none" points="218.94,442.718 237.838,442.718 "/>
<polyline clip-path="url(#clip110)" style="stroke:#000000; stroke-linecap:round; stroke-linejoin:round; stroke-width:4; stroke-opacity:1; fill:none" points="218.94,108.494 237.838,108.494 "/>
<path clip-path="url(#clip110)" d="M119.885 1124.51 L136.204 1124.51 L136.204 1128.45 L114.26 1128.45 L114.26 1124.51 Q116.922 1121.76 121.505 1117.13 Q126.112 1112.47 127.292 1111.13 Q129.538 1108.61 130.417 1106.87 Q131.32 1105.11 131.32 1103.42 Q131.32 1100.67 129.376 1098.93 Q127.455 1097.2 124.353 1097.2 Q122.154 1097.2 119.7 1097.96 Q117.269 1098.72 114.492 1100.27 L114.492 1095.55 Q117.316 1094.42 119.769 1093.84 Q122.223 1093.26 124.26 1093.26 Q129.63 1093.26 132.825 1095.95 Q136.019 1098.63 136.019 1103.12 Q136.019 1105.25 135.209 1107.17 Q134.422 1109.07 132.316 1111.66 Q131.737 1112.33 128.635 1115.55 Q125.533 1118.75 119.885 1124.51 Z" fill="#000000" fill-rule="nonzero" fill-opacity="1" /><path clip-path="url(#clip110)" d="M146.019 1122.57 L150.903 1122.57 L150.903 1128.45 L146.019 1128.45 L146.019 1122.57 Z" fill="#000000" fill-rule="nonzero" fill-opacity="1" /><path clip-path="url(#clip110)" d="M171.089 1112.03 Q167.755 1112.03 165.834 1113.82 Q163.936 1115.6 163.936 1118.72 Q163.936 1121.85 165.834 1123.63 Q167.755 1125.41 171.089 1125.41 Q174.422 1125.41 176.343 1123.63 Q178.264 1121.83 178.264 1118.72 Q178.264 1115.6 176.343 1113.82 Q174.445 1112.03 171.089 1112.03 M166.413 1110.04 Q163.403 1109.3 161.714 1107.24 Q160.047 1105.18 160.047 1102.22 Q160.047 1098.08 162.987 1095.67 Q165.95 1093.26 171.089 1093.26 Q176.251 1093.26 179.19 1095.67 Q182.13 1098.08 182.13 1102.22 Q182.13 1105.18 180.44 1107.24 Q178.774 1109.3 175.788 1110.04 Q179.167 1110.83 181.042 1113.12 Q182.94 1115.41 182.94 1118.72 Q182.94 1123.75 179.862 1126.43 Q176.806 1129.12 171.089 1129.12 Q165.371 1129.12 162.292 1126.43 Q159.237 1123.75 159.237 1118.72 Q159.237 1115.41 161.135 1113.12 Q163.033 1110.83 166.413 1110.04 M164.7 1102.66 Q164.7 1105.34 166.366 1106.85 Q168.056 1108.35 171.089 1108.35 Q174.098 1108.35 175.788 1106.85 Q177.501 1105.34 177.501 1102.66 Q177.501 1099.97 175.788 1098.47 Q174.098 1096.96 171.089 1096.96 Q168.056 1096.96 166.366 1098.47 Q164.7 1099.97 164.7 1102.66 Z" fill="#000000" fill-rule="nonzero" fill-opacity="1" /><path clip-path="url(#clip110)" d="M119.978 790.287 L136.297 790.287 L136.297 794.222 L114.353 794.222 L114.353 790.287 Q117.015 787.532 121.598 782.903 Q126.205 778.25 127.385 776.907 Q129.63 774.384 130.51 772.648 Q131.413 770.889 131.413 769.199 Q131.413 766.444 129.468 764.708 Q127.547 762.972 124.445 762.972 Q122.246 762.972 119.793 763.736 Q117.362 764.5 114.584 766.051 L114.584 761.329 Q117.408 760.194 119.862 759.616 Q122.316 759.037 124.353 759.037 Q129.723 759.037 132.917 761.722 Q136.112 764.407 136.112 768.898 Q136.112 771.028 135.302 772.949 Q134.515 774.847 132.408 777.44 Q131.83 778.111 128.728 781.329 Q125.626 784.523 119.978 790.287 Z" fill="#000000" fill-rule="nonzero" fill-opacity="1" /><path clip-path="url(#clip110)" d="M146.112 788.342 L150.996 788.342 L150.996 794.222 L146.112 794.222 L146.112 788.342 Z" fill="#000000" fill-rule="nonzero" fill-opacity="1" /><path clip-path="url(#clip110)" d="M161.32 793.504 L161.32 789.245 Q163.079 790.078 164.885 790.518 Q166.69 790.958 168.427 790.958 Q173.056 790.958 175.487 787.856 Q177.94 784.731 178.288 778.389 Q176.945 780.379 174.885 781.444 Q172.825 782.509 170.325 782.509 Q165.14 782.509 162.107 779.384 Q159.098 776.236 159.098 770.796 Q159.098 765.472 162.246 762.255 Q165.394 759.037 170.626 759.037 Q176.621 759.037 179.769 763.643 Q182.94 768.227 182.94 776.977 Q182.94 785.148 179.051 790.032 Q175.186 794.893 168.635 794.893 Q166.876 794.893 165.07 794.546 Q163.265 794.199 161.32 793.504 M170.626 778.852 Q173.774 778.852 175.602 776.699 Q177.454 774.546 177.454 770.796 Q177.454 767.069 175.602 764.917 Q173.774 762.741 170.626 762.741 Q167.477 762.741 165.626 764.917 Q163.797 767.069 163.797 770.796 Q163.797 774.546 165.626 776.699 Q167.477 778.852 170.626 778.852 Z" fill="#000000" fill-rule="nonzero" fill-opacity="1" /><path clip-path="url(#clip110)" d="M129.931 441.364 Q133.288 442.081 135.163 444.35 Q137.061 446.618 137.061 449.952 Q137.061 455.067 133.542 457.868 Q130.024 460.669 123.543 460.669 Q121.367 460.669 119.052 460.229 Q116.76 459.813 114.306 458.956 L114.306 454.442 Q116.251 455.577 118.566 456.155 Q120.88 456.734 123.404 456.734 Q127.802 456.734 130.093 454.998 Q132.408 453.262 132.408 449.952 Q132.408 446.896 130.255 445.183 Q128.126 443.447 124.306 443.447 L120.279 443.447 L120.279 439.605 L124.492 439.605 Q127.941 439.605 129.769 438.239 Q131.598 436.85 131.598 434.257 Q131.598 431.595 129.7 430.183 Q127.825 428.748 124.306 428.748 Q122.385 428.748 120.186 429.165 Q117.987 429.582 115.348 430.461 L115.348 426.294 Q118.01 425.554 120.325 425.183 Q122.663 424.813 124.723 424.813 Q130.047 424.813 133.149 427.244 Q136.251 429.651 136.251 433.771 Q136.251 436.642 134.607 438.632 Q132.964 440.6 129.931 441.364 Z" fill="#000000" fill-rule="nonzero" fill-opacity="1" /><path clip-path="url(#clip110)" d="M145.927 454.118 L150.811 454.118 L150.811 459.998 L145.927 459.998 L145.927 454.118 Z" fill="#000000" fill-rule="nonzero" fill-opacity="1" /><path clip-path="url(#clip110)" d="M170.996 428.517 Q167.385 428.517 165.556 432.081 Q163.751 435.623 163.751 442.753 Q163.751 449.859 165.556 453.424 Q167.385 456.966 170.996 456.966 Q174.63 456.966 176.436 453.424 Q178.264 449.859 178.264 442.753 Q178.264 435.623 176.436 432.081 Q174.63 428.517 170.996 428.517 M170.996 424.813 Q176.806 424.813 179.862 429.419 Q182.94 434.003 182.94 442.753 Q182.94 451.48 179.862 456.086 Q176.806 460.669 170.996 460.669 Q165.186 460.669 162.107 456.086 Q159.052 451.48 159.052 442.753 Q159.052 434.003 162.107 429.419 Q165.186 424.813 170.996 424.813 Z" fill="#000000" fill-rule="nonzero" fill-opacity="1" /><path clip-path="url(#clip110)" d="M131.158 107.14 Q134.515 107.857 136.39 110.126 Q138.288 112.394 138.288 115.728 Q138.288 120.844 134.769 123.644 Q131.251 126.445 124.769 126.445 Q122.593 126.445 120.279 126.006 Q117.987 125.589 115.533 124.732 L115.533 120.219 Q117.478 121.353 119.793 121.931 Q122.107 122.51 124.63 122.51 Q129.029 122.51 131.32 120.774 Q133.635 119.038 133.635 115.728 Q133.635 112.672 131.482 110.959 Q129.353 109.223 125.533 109.223 L121.505 109.223 L121.505 105.381 L125.718 105.381 Q129.167 105.381 130.996 104.015 Q132.825 102.626 132.825 100.033 Q132.825 97.3714 130.927 95.9594 Q129.052 94.5242 125.533 94.5242 Q123.612 94.5242 121.413 94.9409 Q119.214 95.3575 116.575 96.2372 L116.575 92.0705 Q119.237 91.3298 121.552 90.9594 Q123.89 90.589 125.95 90.589 Q131.274 90.589 134.376 93.0196 Q137.478 95.427 137.478 99.5473 Q137.478 102.418 135.834 104.408 Q134.191 106.376 131.158 107.14 Z" fill="#000000" fill-rule="nonzero" fill-opacity="1" /><path clip-path="url(#clip110)" d="M147.153 119.894 L152.038 119.894 L152.038 125.774 L147.153 125.774 L147.153 119.894 Z" fill="#000000" fill-rule="nonzero" fill-opacity="1" /><path clip-path="url(#clip110)" d="M163.033 121.839 L170.672 121.839 L170.672 95.4733 L162.362 97.1399 L162.362 92.8807 L170.626 91.214 L175.301 91.214 L175.301 121.839 L182.94 121.839 L182.94 125.774 L163.033 125.774 L163.033 121.839 Z" fill="#000000" fill-rule="nonzero" fill-opacity="1" /><path clip-path="url(#clip110)" d="M24.1199 765.028 Q25.8912 765.028 26.9862 766.155 Q28.0812 767.25 28.0812 768.635 Q28.0812 769.634 27.4693 770.374 Q26.8574 771.083 25.7946 771.083 Q24.6996 771.083 23.5402 770.245 Q22.3807 769.408 22.2197 767.508 Q21.0281 768.764 21.0281 770.761 Q21.0281 771.759 21.6722 772.597 Q22.2841 773.402 23.2825 773.853 Q24.3131 774.336 30.1424 775.431 Q32.0425 775.785 33.8782 776.107 Q35.714 776.429 37.6463 776.815 L37.6463 771.34 Q37.6463 770.632 37.6785 770.342 Q37.7107 770.052 37.8718 769.827 Q38.0328 769.569 38.3871 769.569 Q39.2888 769.569 39.5143 769.988 Q39.7075 770.374 39.7075 771.534 L39.7075 777.202 L60.6091 781.163 Q61.221 781.26 63.1534 781.679 Q65.0535 782.065 68.1775 782.999 Q71.3337 783.933 73.2016 784.867 Q74.2644 785.382 75.2628 786.059 Q76.2934 786.703 77.3239 787.637 Q78.3545 788.571 78.9664 789.794 Q79.6106 791.018 79.6106 792.306 Q79.6106 794.496 78.3867 796.203 Q77.1629 797.91 75.0695 797.91 Q73.2982 797.91 72.2032 796.815 Q71.1082 795.688 71.1082 794.303 Q71.1082 793.305 71.7201 792.596 Q72.332 791.856 73.3948 791.856 Q73.8457 791.856 74.361 792.017 Q74.8763 792.178 75.456 792.532 Q76.0679 792.886 76.4866 793.659 Q76.9053 794.432 76.9697 795.495 Q78.1613 794.239 78.1613 792.306 Q78.1613 791.695 77.9036 791.147 Q77.6782 790.6 77.0985 790.149 Q76.5188 789.666 75.9391 789.311 Q75.3916 788.957 74.3288 788.603 Q73.2982 788.249 72.5253 788.023 Q71.7523 787.798 70.3675 787.508 Q68.9826 787.186 68.1453 787.025 Q67.3401 786.864 65.762 786.574 L39.7075 781.646 L39.7075 785.994 Q39.7075 786.767 39.6753 787.089 Q39.6431 787.379 39.4821 787.604 Q39.2888 787.83 38.9023 787.83 Q38.2904 787.83 38.0328 787.572 Q37.7429 787.282 37.7107 786.96 Q37.6463 786.638 37.6463 785.865 L37.6463 781.292 Q29.4982 779.746 27.3082 779.134 Q24.9894 778.426 23.3791 777.331 Q21.7366 776.236 20.9637 775.012 Q20.1907 773.788 19.9009 772.79 Q19.5788 771.759 19.5788 770.761 Q19.5788 768.506 20.8027 766.767 Q21.9943 765.028 24.1199 765.028 Z" fill="#000000" fill-rule="nonzero" fill-opacity="1" /><path clip-path="url(#clip110)" d="M49.5947 756.148 Q38.4515 756.148 29.466 751.994 Q25.6979 750.222 22.5418 747.742 Q19.3856 745.263 18.0007 743.62 Q16.6159 741.978 16.6159 741.527 Q16.6159 740.883 17.26 740.85 Q17.5821 740.85 18.3872 741.72 Q29.2084 752.348 49.5947 752.316 Q70.0454 752.316 80.4479 741.978 Q81.5751 740.85 81.9294 740.85 Q82.5735 740.85 82.5735 741.527 Q82.5735 741.978 81.2531 743.556 Q79.9326 745.134 76.9053 747.581 Q73.8779 750.029 70.1742 751.8 Q61.1888 756.148 49.5947 756.148 Z" fill="#000000" fill-rule="nonzero" fill-opacity="1" /><path clip-path="url(#clip110)" d="M41.0923 704.926 Q42.9281 704.926 44.0231 706.053 Q45.1181 707.148 45.1181 708.533 Q45.1181 709.757 44.4096 710.401 Q43.701 711.045 42.7993 711.045 Q42.4128 711.045 41.9297 710.884 Q41.4144 710.723 40.8025 710.369 Q40.1906 709.982 39.7397 709.177 Q39.2888 708.372 39.2244 707.277 Q38.999 707.502 38.9668 707.567 Q38.5803 708.05 38.4515 708.952 Q38.3871 709.08 38.3871 709.531 Q38.3871 711.754 40.0296 714.008 Q41.6398 716.23 44.6994 718.968 Q48.2743 722.414 49.5947 724.636 Q50.8829 714.877 56.519 714.877 Q57.4529 714.877 58.5801 715.135 Q60.7057 715.65 62.2516 715.65 Q65.3434 715.65 65.3434 713.557 Q65.3434 711.528 63.2822 710.24 Q61.221 708.919 57.1953 707.824 Q56.4545 707.663 56.2291 707.502 Q56.0037 707.341 56.0037 706.89 Q56.0037 706.085 56.6478 706.085 Q60.4159 706.826 63.3144 708.469 Q66.8248 710.562 66.8248 713.686 Q66.8248 716.295 65.0213 718.034 Q63.1856 719.741 60.287 719.741 Q59.5785 719.741 57.9682 719.483 Q57.3241 719.29 56.5834 719.29 Q55.0697 719.29 53.9425 720.127 Q52.7831 720.964 52.2034 722.317 Q51.6237 723.67 51.366 724.797 Q51.0762 725.892 50.9795 726.955 Q64.6026 730.175 65.44 730.626 Q66.0197 730.916 66.4062 731.56 Q66.8248 732.204 66.8248 732.881 Q66.8248 733.525 66.3739 734.169 Q65.9553 734.781 64.9569 734.781 Q64.4416 734.781 63.5076 734.523 L25.5047 724.958 L24.2165 724.765 Q23.83 724.765 23.6368 724.926 Q23.4113 725.055 23.2503 725.827 Q23.0893 726.568 23.0893 728.05 Q23.0893 728.662 23.0571 728.951 Q23.0249 729.209 22.8638 729.435 Q22.6706 729.66 22.2841 729.66 Q21.7366 729.66 21.4468 729.435 Q21.1247 729.177 21.0603 728.984 Q20.9959 728.79 20.9637 728.404 Q20.9315 727.856 20.7704 726.021 Q20.5772 724.185 20.4484 722.607 Q20.3196 721.029 20.3196 720.352 Q20.3196 719.966 20.5128 719.773 Q20.6738 719.547 20.8671 719.515 L21.0281 719.483 L48.854 726.343 Q47.7268 723.509 42.7348 719.032 Q36.9378 713.847 36.9378 709.403 Q36.9378 707.309 38.226 706.118 Q39.4821 704.926 41.0923 704.926 Z" fill="#000000" fill-rule="nonzero" fill-opacity="1" /><path clip-path="url(#clip110)" d="M81.9294 697.841 Q81.6073 697.841 80.8022 697.004 Q69.981 686.376 49.5947 686.376 Q29.144 686.376 18.8059 696.585 Q17.6143 697.841 17.26 697.841 Q16.6159 697.841 16.6159 697.197 Q16.6159 696.746 17.9363 695.168 Q19.2568 693.558 22.2841 691.142 Q25.3115 688.695 29.0151 686.891 Q38.0006 682.543 49.5947 682.543 Q60.7379 682.543 69.7234 686.698 Q73.4914 688.469 76.6476 690.949 Q79.8038 693.429 81.1886 695.071 Q82.5735 696.714 82.5735 697.197 Q82.5735 697.841 81.9294 697.841 Z" fill="#000000" fill-rule="nonzero" fill-opacity="1" /><polyline clip-path="url(#clip112)" style="stroke:#009af9; stroke-linecap:round; stroke-linejoin:round; stroke-width:4; stroke-opacity:1; fill:none" points="279.331,825.772 299.665,887.536 319.999,943.797 340.332,995.021 360.666,1041.62 381,1083.98 401.333,1122.41 421.667,1157.24 442.001,1188.71 462.334,1217.09 482.668,1242.58 503.002,1265.4 523.335,1285.73 543.669,1303.73 564.003,1319.55 584.336,1333.34 604.67,1345.23 625.004,1355.33 645.337,1363.76 665.671,1370.61 686.005,1375.98 706.338,1379.94 726.672,1382.6 747.006,1384 767.339,1384.24 787.673,1383.36 808.007,1381.43 828.341,1378.51 848.674,1374.64 869.008,1369.87 889.342,1364.26 909.675,1357.84 930.009,1350.65 950.343,1342.72 970.676,1334.11 991.01,1324.83 1011.34,1314.92 1031.68,1304.4 1052.01,1293.31 1072.34,1281.68 1092.68,1269.52 1113.01,1256.85 1133.35,1243.71 1153.68,1230.11 1174.01,1216.07 1194.35,1201.61 1214.68,1186.75 1235.01,1171.51 1255.35,1155.89 1275.68,1139.92 1296.01,1123.61 1316.35,1106.97 1336.68,1090.02 1357.02,1072.77 1377.35,1055.23 1397.68,1037.4 1418.02,1019.32 1438.35,1000.97 1458.68,982.381 1479.02,963.55 1499.35,944.491 1519.69,925.21 1540.02,905.718 1560.35,886.02 1580.69,866.125 1601.02,846.04 1621.35,825.772 1641.69,805.327 1662.02,784.711 1682.35,763.931 1702.69,742.992 1723.02,721.9 1743.36,700.661 1763.69,679.279 1784.02,657.759 1804.36,636.106 1824.69,614.324 1845.02,592.418 1865.36,570.393 1885.69,548.252 1906.03,525.998 1926.36,503.637 1946.69,481.171 1967.03,458.603 1987.36,435.938 2007.69,413.179 2028.03,390.328 2048.36,367.389 2068.69,344.364 2089.03,321.257 2109.36,298.069 2129.7,274.804 2150.03,251.465 2170.36,228.053 2190.7,204.57 2211.03,181.021 2231.36,157.405 2251.7,133.726 2272.03,109.986 2292.36,86.1857 "/>
<path clip-path="url(#clip110)" d="M290.068 273.126 L752.716 273.126 L752.716 93.1086 L290.068 93.1086  Z" fill="#ffffff" fill-rule="evenodd" fill-opacity="1"/>
<polyline clip-path="url(#clip110)" style="stroke:#000000; stroke-linecap:round; stroke-linejoin:round; stroke-width:4; stroke-opacity:1; fill:none" points="290.068,273.126 752.716,273.126 752.716,93.1086 290.068,93.1086 290.068,273.126 "/>
<polyline clip-path="url(#clip110)" style="stroke:#009af9; stroke-linecap:round; stroke-linejoin:round; stroke-width:4; stroke-opacity:1; fill:none" points="313.777,183.117 456.031,183.117 "/>
<path clip-path="url(#clip110)" d="M503.654 164.481 Q503.654 165.769 502.835 166.565 Q502.038 167.362 501.031 167.362 Q500.305 167.362 499.766 166.917 Q499.251 166.472 499.251 165.699 Q499.251 164.902 499.86 164.059 Q500.469 163.216 501.851 163.099 Q500.937 162.232 499.485 162.232 Q498.759 162.232 498.15 162.701 Q497.565 163.146 497.237 163.872 Q496.885 164.621 496.089 168.861 Q495.831 170.243 495.597 171.578 Q495.363 172.913 495.082 174.318 L499.064 174.318 Q499.579 174.318 499.79 174.342 Q500 174.365 500.164 174.482 Q500.352 174.599 500.352 174.857 Q500.352 175.513 500.047 175.677 Q499.766 175.817 498.923 175.817 L494.801 175.817 L491.92 191.018 Q491.849 191.463 491.545 192.869 Q491.264 194.251 490.585 196.523 Q489.905 198.818 489.226 200.177 Q488.851 200.949 488.359 201.676 Q487.891 202.425 487.212 203.175 Q486.533 203.924 485.642 204.369 Q484.752 204.838 483.816 204.838 Q482.223 204.838 480.981 203.948 Q479.74 203.058 479.74 201.535 Q479.74 200.247 480.536 199.45 Q481.356 198.654 482.363 198.654 Q483.089 198.654 483.605 199.099 Q484.143 199.544 484.143 200.317 Q484.143 200.645 484.026 201.02 Q483.909 201.395 483.652 201.816 Q483.394 202.261 482.832 202.566 Q482.27 202.87 481.497 202.917 Q482.41 203.784 483.816 203.784 Q484.261 203.784 484.659 203.596 Q485.057 203.432 485.385 203.011 Q485.736 202.589 485.994 202.167 Q486.251 201.769 486.509 200.996 Q486.767 200.247 486.931 199.685 Q487.095 199.123 487.305 198.115 Q487.54 197.108 487.657 196.499 Q487.774 195.914 487.985 194.766 L491.568 175.817 L488.406 175.817 Q487.844 175.817 487.61 175.794 Q487.399 175.77 487.235 175.653 Q487.071 175.513 487.071 175.232 Q487.071 174.787 487.259 174.599 Q487.469 174.388 487.704 174.365 Q487.938 174.318 488.5 174.318 L491.826 174.318 Q492.95 168.392 493.395 166.8 Q493.911 165.113 494.707 163.942 Q495.503 162.747 496.393 162.185 Q497.283 161.623 498.01 161.412 Q498.759 161.178 499.485 161.178 Q501.125 161.178 502.39 162.068 Q503.654 162.935 503.654 164.481 Z" fill="#000000" fill-rule="nonzero" fill-opacity="1" /><path clip-path="url(#clip110)" d="M510.107 183.008 Q510.107 174.904 513.128 168.369 Q514.417 165.628 516.22 163.333 Q518.024 161.038 519.218 160.03 Q520.413 159.023 520.741 159.023 Q521.209 159.023 521.233 159.492 Q521.233 159.726 520.6 160.312 Q512.871 168.181 512.894 183.008 Q512.894 197.881 520.413 205.447 Q521.233 206.266 521.233 206.524 Q521.233 206.992 520.741 206.992 Q520.413 206.992 519.265 206.032 Q518.117 205.072 516.337 202.87 Q514.557 200.668 513.269 197.975 Q510.107 191.44 510.107 183.008 Z" fill="#000000" fill-rule="nonzero" fill-opacity="1" /><path clip-path="url(#clip110)" d="M547.355 176.824 Q547.355 178.159 546.535 178.956 Q545.739 179.752 544.732 179.752 Q543.842 179.752 543.373 179.237 Q542.905 178.722 542.905 178.066 Q542.905 177.785 543.022 177.433 Q543.139 177.059 543.397 176.614 Q543.678 176.169 544.263 175.841 Q544.849 175.513 545.645 175.466 Q545.481 175.302 545.434 175.278 Q545.083 174.997 544.427 174.904 Q544.334 174.857 544.006 174.857 Q542.39 174.857 540.75 176.051 Q539.134 177.223 537.143 179.448 Q534.637 182.048 533.021 183.008 Q540.118 183.945 540.118 188.044 Q540.118 188.723 539.93 189.543 Q539.555 191.089 539.555 192.213 Q539.555 194.461 541.078 194.461 Q542.553 194.461 543.49 192.962 Q544.451 191.463 545.247 188.536 Q545.364 187.997 545.481 187.833 Q545.598 187.669 545.926 187.669 Q546.512 187.669 546.512 188.137 Q545.973 190.878 544.779 192.986 Q543.256 195.539 540.984 195.539 Q539.087 195.539 537.822 194.227 Q536.581 192.892 536.581 190.784 Q536.581 190.269 536.768 189.098 Q536.909 188.629 536.909 188.091 Q536.909 186.99 536.3 186.17 Q535.691 185.327 534.707 184.905 Q533.723 184.484 532.903 184.296 Q532.107 184.085 531.334 184.015 Q528.992 193.923 528.664 194.532 Q528.453 194.953 527.985 195.234 Q527.516 195.539 527.024 195.539 Q526.556 195.539 526.088 195.211 Q525.642 194.906 525.642 194.18 Q525.642 193.806 525.83 193.126 L532.786 165.488 L532.927 164.551 Q532.927 164.27 532.81 164.129 Q532.716 163.965 532.154 163.848 Q531.615 163.731 530.538 163.731 Q530.093 163.731 529.882 163.708 Q529.695 163.684 529.531 163.567 Q529.367 163.427 529.367 163.146 Q529.367 162.747 529.531 162.537 Q529.718 162.302 529.859 162.256 Q529.999 162.209 530.28 162.185 Q530.678 162.162 532.013 162.045 Q533.348 161.904 534.496 161.811 Q535.644 161.717 536.136 161.717 Q536.417 161.717 536.557 161.857 Q536.721 161.975 536.745 162.115 L536.768 162.232 L531.779 182.469 Q533.84 181.649 537.096 178.019 Q540.867 173.803 544.099 173.803 Q545.622 173.803 546.488 174.74 Q547.355 175.653 547.355 176.824 Z" fill="#000000" fill-rule="nonzero" fill-opacity="1" /><path clip-path="url(#clip110)" d="M552.502 206.524 Q552.502 206.29 553.111 205.704 Q560.84 197.834 560.84 183.008 Q560.84 168.135 553.415 160.616 Q552.502 159.749 552.502 159.492 Q552.502 159.023 552.97 159.023 Q553.298 159.023 554.446 159.984 Q555.617 160.944 557.374 163.146 Q559.154 165.347 560.465 168.041 Q563.627 174.576 563.627 183.008 Q563.627 191.112 560.606 197.647 Q559.318 200.387 557.514 202.683 Q555.711 204.978 554.516 205.985 Q553.322 206.992 552.97 206.992 Q552.502 206.992 552.502 206.524 Z" fill="#000000" fill-rule="nonzero" fill-opacity="1" /><path clip-path="url(#clip110)" d="M584.222 187.716 Q584.269 187.13 585.182 187.13 L614.578 187.13 Q615.959 187.13 615.983 187.669 Q615.983 188.255 614.671 188.231 L585.51 188.231 Q584.222 188.255 584.222 187.716 M584.222 178.347 Q584.222 177.761 585.229 177.785 L614.531 177.785 Q615.959 177.785 615.983 178.347 Q615.983 178.886 614.765 178.886 L585.182 178.886 Q584.222 178.886 584.222 178.347 Z" fill="#000000" fill-rule="nonzero" fill-opacity="1" /><path clip-path="url(#clip110)" d="M692.426 152.89 Q692.426 154.225 691.607 155.022 Q690.81 155.818 689.803 155.818 Q688.913 155.818 688.445 155.303 Q687.976 154.788 687.976 154.132 Q687.976 153.851 688.093 153.499 Q688.21 153.125 688.468 152.68 Q688.749 152.234 689.335 151.907 Q689.92 151.579 690.717 151.532 Q690.553 151.368 690.506 151.344 Q690.154 151.063 689.499 150.97 Q689.405 150.923 689.077 150.923 Q687.461 150.923 685.821 152.117 Q684.205 153.288 682.214 155.514 Q679.708 158.114 678.092 159.074 Q685.189 160.011 685.189 164.11 Q685.189 164.789 685.001 165.609 Q684.627 167.155 684.627 168.279 Q684.627 170.527 686.149 170.527 Q687.625 170.527 688.562 169.028 Q689.522 167.529 690.318 164.602 Q690.435 164.063 690.553 163.899 Q690.67 163.735 690.998 163.735 Q691.583 163.735 691.583 164.203 Q691.044 166.944 689.85 169.052 Q688.327 171.605 686.055 171.605 Q684.158 171.605 682.893 170.293 Q681.652 168.958 681.652 166.85 Q681.652 166.335 681.839 165.164 Q681.98 164.695 681.98 164.156 Q681.98 163.056 681.371 162.236 Q680.762 161.393 679.778 160.971 Q678.794 160.549 677.975 160.362 Q677.178 160.151 676.405 160.081 Q674.063 169.989 673.735 170.598 Q673.524 171.019 673.056 171.3 Q672.588 171.605 672.096 171.605 Q671.627 171.605 671.159 171.277 Q670.714 170.972 670.714 170.246 Q670.714 169.872 670.901 169.192 L677.858 141.554 L677.998 140.617 Q677.998 140.336 677.881 140.195 Q677.787 140.031 677.225 139.914 Q676.686 139.797 675.609 139.797 Q675.164 139.797 674.953 139.774 Q674.766 139.75 674.602 139.633 Q674.438 139.493 674.438 139.212 Q674.438 138.813 674.602 138.603 Q674.789 138.368 674.93 138.322 Q675.07 138.275 675.351 138.251 Q675.75 138.228 677.085 138.111 Q678.42 137.97 679.567 137.877 Q680.715 137.783 681.207 137.783 Q681.488 137.783 681.629 137.923 Q681.793 138.04 681.816 138.181 L681.839 138.298 L676.85 158.535 Q678.912 157.715 682.167 154.085 Q685.938 149.869 689.171 149.869 Q690.693 149.869 691.56 150.806 Q692.426 151.719 692.426 152.89 Z" fill="#000000" fill-rule="nonzero" fill-opacity="1" /><path clip-path="url(#clip110)" d="M644.714 184.397 L723.887 184.397 L723.887 181.837 L644.714 181.837  Z" fill="#000000" fill-rule="evenodd" fill-opacity="1"/>
<path clip-path="url(#clip110)" d="M644.714 227.59 L644.714 226.115 Q647.267 226.115 647.852 225.81 Q648.438 225.482 648.438 223.937 L648.438 198.992 Q648.438 197.212 647.806 196.767 Q647.197 196.322 644.714 196.322 L644.714 194.822 L651.6 194.307 L651.6 223.937 Q651.6 225.482 652.209 225.81 Q652.818 226.115 655.348 226.115 L655.348 227.59 Q654.762 227.59 653.544 227.544 Q652.326 227.497 651.436 227.473 Q650.546 227.45 650.031 227.45 Q649.469 227.45 644.714 227.59 Z" fill="#000000" fill-rule="nonzero" fill-opacity="1" /><path clip-path="url(#clip110)" d="M658.248 227.59 L658.248 226.115 Q660.801 226.115 661.387 225.81 Q661.973 225.482 661.973 223.937 L661.973 211.078 Q661.973 209.298 661.34 208.853 Q660.731 208.408 658.248 208.408 L658.248 206.908 L664.994 206.393 L664.994 211.429 Q667.243 206.393 672.091 206.393 Q675.698 206.393 677.127 208.173 Q678.181 209.368 678.392 210.703 Q678.626 212.038 678.626 215.505 L678.626 224.663 Q678.673 225.67 679.446 225.904 Q680.219 226.115 682.374 226.115 L682.374 227.59 Q677.478 227.45 676.986 227.45 Q676.612 227.45 671.576 227.59 L671.576 226.115 Q674.129 226.115 674.714 225.81 Q675.323 225.482 675.323 223.937 L675.323 212.764 Q675.323 210.328 674.574 208.899 Q673.824 207.447 671.763 207.447 Q669.28 207.447 667.289 209.532 Q665.299 211.616 665.299 215.13 L665.299 223.937 Q665.299 225.482 665.884 225.81 Q666.493 226.115 669.023 226.115 L669.023 227.59 Q664.127 227.45 663.659 227.45 Q663.284 227.45 658.248 227.59 Z" fill="#000000" fill-rule="nonzero" fill-opacity="1" /><path clip-path="url(#clip110)" d="M718.98 209.415 Q718.98 210.75 718.16 211.546 Q717.364 212.342 716.356 212.342 Q715.466 212.342 714.998 211.827 Q714.529 211.312 714.529 210.656 Q714.529 210.375 714.647 210.024 Q714.764 209.649 715.021 209.204 Q715.302 208.759 715.888 208.431 Q716.473 208.103 717.27 208.056 Q717.106 207.892 717.059 207.869 Q716.708 207.588 716.052 207.494 Q715.958 207.447 715.63 207.447 Q714.014 207.447 712.375 208.642 Q710.758 209.813 708.767 212.038 Q706.261 214.638 704.645 215.598 Q711.742 216.535 711.742 220.634 Q711.742 221.313 711.555 222.133 Q711.18 223.679 711.18 224.803 Q711.18 227.052 712.702 227.052 Q714.178 227.052 715.115 225.553 Q716.075 224.054 716.872 221.126 Q716.989 220.587 717.106 220.423 Q717.223 220.259 717.551 220.259 Q718.136 220.259 718.136 220.728 Q717.598 223.468 716.403 225.576 Q714.881 228.129 712.609 228.129 Q710.712 228.129 709.447 226.818 Q708.205 225.482 708.205 223.374 Q708.205 222.859 708.393 221.688 Q708.533 221.22 708.533 220.681 Q708.533 219.58 707.924 218.76 Q707.315 217.917 706.332 217.495 Q705.348 217.074 704.528 216.886 Q703.732 216.676 702.959 216.605 Q700.616 226.513 700.289 227.122 Q700.078 227.544 699.609 227.825 Q699.141 228.129 698.649 228.129 Q698.181 228.129 697.712 227.801 Q697.267 227.497 697.267 226.771 Q697.267 226.396 697.454 225.717 L704.411 198.078 L704.551 197.141 Q704.551 196.86 704.434 196.72 Q704.341 196.556 703.779 196.439 Q703.24 196.322 702.162 196.322 Q701.717 196.322 701.507 196.298 Q701.319 196.275 701.155 196.158 Q700.991 196.017 700.991 195.736 Q700.991 195.338 701.155 195.127 Q701.343 194.893 701.483 194.846 Q701.624 194.799 701.905 194.776 Q702.303 194.752 703.638 194.635 Q704.973 194.495 706.121 194.401 Q707.268 194.307 707.76 194.307 Q708.041 194.307 708.182 194.448 Q708.346 194.565 708.369 194.705 L708.393 194.822 L703.404 215.059 Q705.465 214.24 708.721 210.609 Q712.492 206.393 715.724 206.393 Q717.246 206.393 718.113 207.33 Q718.98 208.244 718.98 209.415 Z" fill="#000000" fill-rule="nonzero" fill-opacity="1" /></svg>
